<svg id="katman_1" data-name="katman 1" xmlns="http://www.w3.org/2000/svg" xmlns:xlink="http://www.w3.org/1999/xlink" viewBox="0 0 1070.13 714.35"><defs><style>.cls-1,.cls-10,.cls-13,.cls-14,.cls-16,.cls-17,.cls-19,.cls-21,.cls-27,.cls-29,.cls-3,.cls-8{fill:none;}.cls-2{clip-path:url(#clip-path);}.cls-3{stroke:#aadaf1;}.cls-10,.cls-13,.cls-14,.cls-16,.cls-17,.cls-19,.cls-21,.cls-27,.cls-29,.cls-3,.cls-8{stroke-linecap:round;stroke-linejoin:round;}.cls-10,.cls-16,.cls-17,.cls-19,.cls-21,.cls-27,.cls-29,.cls-3,.cls-8{stroke-width:2px;}.cls-26,.cls-4{fill:#fff;}.cls-11,.cls-12,.cls-15,.cls-18,.cls-4,.cls-5,.cls-6,.cls-7,.cls-9{fill-rule:evenodd;}.cls-5{fill:#dedede;}.cls-22,.cls-6{fill:#f77f89;}.cls-23,.cls-7{fill:#6367fd;}.cls-8{stroke:#4c4fd9;}.cls-25,.cls-9{fill:#f7d167;}.cls-10{stroke:#ff3274;}.cls-11{fill:#bf9111;}.cls-12{fill:#3b4161;}.cls-13{stroke:#6367fd;stroke-width:6.77px;}.cls-14,.cls-27{stroke:#fff;}.cls-14{stroke-width:3.05px;}.cls-15,.cls-28{fill:#cb5d66;}.cls-16{stroke:#737999;}.cls-17{stroke:#cb5d66;}.cls-18{fill:#f2e283;}.cls-19{stroke:#c9c9c9;}.cls-20{fill:#aadaf1;}.cls-21{stroke:#72a5bd;}.cls-24{fill:#c4c4c4;}.cls-29{stroke:#8d8d8d;}</style><clipPath id="clip-path" transform="translate(-97.47 -235.99)"><rect class="cls-1" x="-209.63" y="-10.93" width="1200" height="1200"/></clipPath></defs><title>mask-man-woman</title><g class="cls-2"><rect class="cls-3" x="311.32" y="202.97" width="60.9" height="32.07" rx="2.03" ry="2.03"/><rect class="cls-3" x="280.87" y="170.9" width="60.9" height="32.07" rx="2.03" ry="2.03"/><rect class="cls-3" x="250.42" y="202.97" width="60.9" height="32.07" rx="2.03" ry="2.03"/><rect class="cls-3" x="340.8" y="235.04" width="60.9" height="32.07" rx="2.03" ry="2.03"/><path class="cls-4" d="M402.85,815H595.5a4.79,4.79,0,0,1,0,9.58H402.85a4.79,4.79,0,0,1,0-9.58" transform="translate(-97.47 -235.99)"/><path class="cls-4" d="M102.26,843.91H294.91a4.79,4.79,0,0,1,0,9.58H102.26a4.79,4.79,0,1,1,0-9.58" transform="translate(-97.47 -235.99)"/><path class="cls-5" d="M522,818.78a82.24,82.24,0,0,0-75.53,49.69,29.33,29.33,0,0,0-36.59-.19,50.05,50.05,0,0,0-89.69-5.34,38,38,0,0,0-55.66,19.4c.88-.05,1.71-.25,2.6-.25H647.78a30.81,30.81,0,0,0-50.71-14.47A82.19,82.19,0,0,0,522,818.78" transform="translate(-97.47 -235.99)"/><path class="cls-5" d="M243.85,872.52H679.4a4.79,4.79,0,1,1,0,9.58H243.85a4.79,4.79,0,1,1,0-9.58" transform="translate(-97.47 -235.99)"/><polygon class="cls-6" points="75.67 581.59 62.95 599.34 89.1 632.06 101.12 611.1 75.67 581.59"/><path class="cls-7" d="M159.3,827.27l-30,34.65,47.13,55s31.28-.35,41.17-.35c-.21-12-8.92-36.86-33.21-35.89,4.9-8.61,8.38-15.69,8.38-15.69Z" transform="translate(-97.47 -235.99)"/><path class="cls-8" d="M184.37,880.72c-13.57-4.19-19.74,1.26-29.26,11.36-6.65,7.07-20.51,6.46-29,2.41" transform="translate(-97.47 -235.99)"/><path class="cls-8" d="M153.27,924.8a92.87,92.87,0,0,0,13.81,4.67c12.42-11,19.77-37.11,17.44-48.76" transform="translate(-97.47 -235.99)"/><path class="cls-8" d="M147.18,840.91a20.29,20.29,0,0,1-5.66,35.37" transform="translate(-97.47 -235.99)"/><polyline class="cls-8" points="37.06 619.87 83.45 670.53 117.82 668.48"/><polygon class="cls-9" points="150.46 434.93 71.14 580.3 101.51 615.85 244.84 467.96 213.38 423.5 150.46 434.93"/><line class="cls-10" x1="118" y1="598.84" x2="82.62" y2="559.26"/><polygon class="cls-11" points="213.38 423.51 150.47 434.94 118.44 493.63 173.38 492.32 191.31 523.16 244.84 467.94 213.38 423.51"/><path class="cls-10" d="M182,832c32.5-38.07,132-154.09,132-154.09" transform="translate(-97.47 -235.99)"/><polygon class="cls-6" points="300.58 629.3 310.16 649.29 353.1 641.53 345.96 617.43 300.58 629.3"/><path class="cls-7" d="M401.26,885.36l14.68,42s84.86-17,91.32-18.66c-12-28.21-36.63-23.48-47.43-20.78a155.19,155.19,0,0,1-7.24-15.83Z" transform="translate(-97.47 -235.99)"/><path class="cls-8" d="M459.11,878.26c1.74-5.65,5.78-9.43,9-8.43s4.46,6.39,2.72,12-5.78,9.43-9,8.43S457.37,883.91,459.11,878.26Z" transform="translate(-97.47 -235.99)"/><path class="cls-8" d="M473.33,877.55c4.5-4.62,10.1-6.07,12.52-3.24s.72,8.86-3.78,13.48S472,893.85,469.56,891,468.83,882.16,473.33,877.55Z" transform="translate(-97.47 -235.99)"/><path class="cls-6" d="M434.18,547.78c5.32,4.3,10.84,9.42,17.93,12.1,10.6,2.57,30,23.83,30,28.42,0,4.33-3.87,5.8-6.28,6-2.08.13-6.51-4.67-7.63-6,1.93,4.39,3,10.35.91,12.23s-5.22,2.52-7.31.09c-3.46-4-2.61-8.53-2.93-11.19-1.7-3.26-6.33-10.49-8.29-11.36-1.37.06-3.43.55-3.82,2.73s4.7,7.09,5.27,9.13c0,2.58-2.83,5.87-5.27,5.22-2.78-.73-11.38-9.08-13.28-11.37-2.56-3.06-3.72-9.76-5.09-12s-6.69-7-7.68-8,8.13-20.22,13.44-15.92" transform="translate(-97.47 -235.99)"/><path class="cls-12" d="M381.08,443c19.11,16.22,47.71,80.14,66.09,95.87-1.92,9.88-32.37,46.64-53.88,37.87-27-11-26.64-146-12.21-133.74" transform="translate(-97.47 -235.99)"/><polygon class="cls-9" points="298.46 298.07 355.12 619.8 295.76 633.81 217.81 429.26 237.17 287.11 298.46 298.07"/><line class="cls-10" x1="248.43" y1="509.6" x2="220.56" y2="436.46"/><line class="cls-10" x1="321.57" y1="627.72" x2="230" y2="339.76"/><path class="cls-10" d="M401,562.6c-8,3.35-48.95,10.93-64.84,9.27" transform="translate(-97.47 -235.99)"/><path class="cls-7" d="M229,485.82l107.51,11.41c6.41.68,11,6.73,10.3,13.5L329.37,675.19c-.72,6.78-6.49,11.72-12.9,11L209,674.82c-6.41-.68-11-6.73-10.3-13.5l17.45-164.46c.72-6.77,6.5-11.72,12.91-11" transform="translate(-97.47 -235.99)"/><path class="cls-8" d="M232.55,586a41,41,0,1,1,41,41A41,41,0,0,1,232.55,586Z" transform="translate(-97.47 -235.99)"/><path class="cls-6" d="M270.91,302.08c0-10.21,5.75-18.48,12.85-18.48s12.86,8.27,12.86,18.48-5.76,18.49-12.86,18.49-12.85-8.28-12.85-18.49" transform="translate(-97.47 -235.99)"/><path class="cls-6" d="M278.15,311.79a41.07,41.07,0,1,1,41.06,41.06,41.06,41.06,0,0,1-41.06-41.06" transform="translate(-97.47 -235.99)"/><path class="cls-6" d="M264.25,573.86c-1.91,6.38-8.1,19.62-2.21,43.34-11.16,17.24-6,29.4,19.61,32.44,4.3-5.24,8.61-8.69,13.41-16.26,1.56-6.83,1.42-17.3,1.56-20.14.27-5.73-8.14-28.45-6.05-38.65s-24.41-7.1-26.32-.73" transform="translate(-97.47 -235.99)"/><path class="cls-12" d="M315.21,366.64c-59.08,0-81.57,124.15-75.11,203.59,12.24,7.72,61.13,10.74,75.11,7.06,3-13.94,4-72.33,4.68-81.82,32.62,3.2,27,8.24,23.05,51.91,17.05.59,39.9-4,57.05-11.18,2.35-29.93-15.24-169.56-84.78-169.56" transform="translate(-97.47 -235.99)"/><path class="cls-13" d="M232.55,493.35l7.8-74.65A44.27,44.27,0,0,1,289,379.27l8.37.88a44.27,44.27,0,0,1,39.43,48.63l-8,76.75" transform="translate(-97.47 -235.99)"/><path class="cls-6" d="M291,335.81c3.08,13.23,3.85,31.86,3.34,39.18,7.84,4.63,28.13,7.84,37.89-5.27-4.62-11.17-5.65-16.57-5.26-23S288,322.58,291,335.81" transform="translate(-97.47 -235.99)"/><path class="cls-4" d="M304.13,350c-.87-7.09,4.24-23.8,7.16-26.12,27.45,1,44.49-18.55,47.26-23.9A32.33,32.33,0,0,1,364,311.36c.71,2.72.09,4.63-4.56,8.53-1.18,16-15.73,41.48-55.35,30.1" transform="translate(-97.47 -235.99)"/><path class="cls-14" d="M313.45,325.55s-24.93-20.45-32.24-21.45" transform="translate(-97.47 -235.99)"/><path class="cls-15" d="M333.86,304.12c0-3.56,1.16-6.44,2.59-6.44s2.59,2.88,2.59,6.44-1.16,6.45-2.59,6.45-2.59-2.89-2.59-6.45" transform="translate(-97.47 -235.99)"/><path class="cls-16" d="M317.41,555.09c-9.51,1.38-61.25-.87-78.36-7.9" transform="translate(-97.47 -235.99)"/><path class="cls-16" d="M319.89,495.47c-.68-19.58,17.13-83.11-18.07-109.25" transform="translate(-97.47 -235.99)"/><line class="cls-16" x1="222.42" y1="259.37" x2="204.35" y2="267.1"/><line class="cls-16" x1="205.14" y1="257.64" x2="222.47" y2="258.86"/><line class="cls-16" x1="207.71" y1="245.45" x2="222.49" y2="258.73"/><path class="cls-16" d="M400,536.2c1-13.08-1.76-47.13-11-81.32" transform="translate(-97.47 -235.99)"/><path class="cls-16" d="M433.59,523c-8,14.12-27,29.37-33.91,32.4" transform="translate(-97.47 -235.99)"/><path class="cls-10" d="M378,568c-.85-5.06-3.87-23.85-3.87-23.85" transform="translate(-97.47 -235.99)"/><line class="cls-10" x1="351.59" y1="599.8" x2="286.7" y2="610.03"/><path class="cls-10" d="M430.46,729.5a33,33,0,0,1-3.46.19,31.33,31.33,0,0,1-7.46-61.75" transform="translate(-97.47 -235.99)"/><line class="cls-8" x1="315.67" y1="683.4" x2="406.44" y2="666.18"/><path class="cls-8" d="M405.88,899.66a20.3,20.3,0,0,1,27,24.11" transform="translate(-97.47 -235.99)"/><path class="cls-14" d="M304.56,348.49c-3.14-1.18-15.76-5.59-22.32-18.81" transform="translate(-97.47 -235.99)"/><path class="cls-6" d="M270.17,319.6a13.23,13.23,0,1,1,13.22,13.23,13.22,13.22,0,0,1-13.22-13.23" transform="translate(-97.47 -235.99)"/><path class="cls-17" d="M296,323.47a13.22,13.22,0,0,1-12.65,9.36" transform="translate(-97.47 -235.99)"/><path class="cls-17" d="M273,311.48a13.2,13.2,0,0,1,7.66-4.81" transform="translate(-97.47 -235.99)"/><path class="cls-18" d="M304.49,253.32a44.24,44.24,0,0,0-33.18,53.06l86.23-19.88a44.25,44.25,0,0,0-53.05-33.18" transform="translate(-97.47 -235.99)"/><path class="cls-18" d="M324.74,280.11l62.31-14.36c5.16-1.19,10,.81,10.88,4.47s-2.66,7.59-7.83,8.78l-62.31,14.36c-5.17,1.19-10-.81-10.88-4.47s2.66-7.59,7.83-8.78" transform="translate(-97.47 -235.99)"/><path class="cls-17" d="M260.22,641.6a61.11,61.11,0,0,0,7.13-9.17" transform="translate(-97.47 -235.99)"/><path class="cls-17" d="M271.26,647.6c4.2-4.06,10.35-12.64,13.5-17.77" transform="translate(-97.47 -235.99)"/><path class="cls-17" d="M448,578.78c6.3-5.23,16.13,5.49,20.6,9.81" transform="translate(-97.47 -235.99)"/><path class="cls-17" d="M285.68,325a5.62,5.62,0,0,1-2.29.48,5.7,5.7,0,1,1,2.92-10.59" transform="translate(-97.47 -235.99)"/><path class="cls-10" d="M325.53,253.6A44.27,44.27,0,0,0,270.39,292" transform="translate(-97.47 -235.99)"/><path class="cls-19" d="M358.55,300A32.33,32.33,0,0,1,364,311.36c.71,2.72.09,4.63-4.56,8.53-.92,12.43-9.87,30.52-32.31,32.72" transform="translate(-97.47 -235.99)"/></g><g id="Layer_2" data-name="Layer 2"><g id="Layer_1-2" data-name="Layer 1-2"><path class="cls-20" d="M1133.75,640.88c-55.7-.81-83.18,200.23-78.5,214.68,1.07,3.29,3.61,6.9,6.87,10.35h49c7.4-15.81,18-48,26.33-83.56l-14-7.82,17.68-8.9a443.4,443.4,0,0,0,8.2-55.47L1135.59,707l7.56-11-8.68-2,14.85-16.09C1147.72,660.45,1143.14,646.84,1133.75,640.88Z" transform="translate(-97.47 -235.99)"/><path class="cls-21" d="M1133.61,640.89l-50.71,225" transform="translate(-97.47 -235.99)"/><path class="cls-20" d="M1033,592.78c-68,25.34-20.8,248.45-7.23,272.47h71.94c.1-.19.25-.34.34-.53,8-16.27,6.06-126.36-15.62-201.47l-17.88.41,12.2-17.78C1066.22,616.71,1051.94,595.48,1033,592.78Z" transform="translate(-97.47 -235.99)"/><path class="cls-21" d="M971.6,865.92h195" transform="translate(-97.47 -235.99)"/><path class="cls-21" d="M1032.88,592.85l32.93,272.54" transform="translate(-97.47 -235.99)"/><path class="cls-22" d="M1021.92,837c7,5.08,28.19,22.21,29.34,26.86s-10.42,35.62-12.9,37.86-27.06,8.19-28.23,9.78-.23,6.45.94,8.84,38.77-.31,38.77-.31,48.81-48.22,48.2-51.8-55.37-53-55.37-53S1014.94,831.92,1021.92,837Z" transform="translate(-97.47 -235.99)"/><path class="cls-23" d="M1076.13,846.11c-1.87,12.64-8.49,31.71-29.24,35.38-3.22,9.38-7.18,19-8.54,20.22-2.48,2.23-27,8.19-28.22,9.78s-.21,6.45.94,8.84,38.76-.31,38.76-.31,48.84-48.2,48.22-51.78C1097.79,866.73,1087.45,856.75,1076.13,846.11Z" transform="translate(-97.47 -235.99)"/><path class="cls-22" d="M779.7,879.41c-2.48,6.58-29.07,69.58-31.89,70.9s-81.59-37.1-82.19-40.89,3-11.83,5.84-11.25c30.09,6,66.7,8.05,70.69.46s9.12-25.23,9.12-25.23S782.22,872.88,779.7,879.41Z" transform="translate(-97.47 -235.99)"/><path class="cls-23" d="M671.45,898.17c-2.88-.57-6.47,7.47-5.84,11.25S745,951.66,747.8,950.3c1.25-.61,7.39-13.86,13.84-28.47-24.31,3.67-37.24-7.72-42.72-18.37A268.58,268.58,0,0,1,671.45,898.17Z" transform="translate(-97.47 -235.99)"/><path class="cls-24" d="M854.13,698.06c80.34,99.61,158.41,152.68,158.41,152.68l41.56-42-120-139.62s9.84-107.78-11-127.55S803.61,635.43,854.13,698.06Z" transform="translate(-97.47 -235.99)"/><path class="cls-24" d="M820.28,535.12l-82.4,336.76,44.67,22s74.81-197,85.87-209c22.76-24.65,59.7-113.3,56.47-147.61S820.28,535.12,820.28,535.12Z" transform="translate(-97.47 -235.99)"/><path class="cls-22" d="M963.83,558.65c1.91,6.37,8.1,19.62,2.21,43.33,11.16,17.25,6,29.4-19.61,32.45-4.3-5.25-8.62-8.7-13.41-16.27-1.56-6.82-1.42-17.29-1.56-20.13-.27-5.74,11.39-31.13,9.3-41.33S961.91,552.27,963.83,558.65Z" transform="translate(-97.47 -235.99)"/><path class="cls-17" d="M967.86,626.39a60.9,60.9,0,0,1-7.13-9.17" transform="translate(-97.47 -235.99)"/><path class="cls-17" d="M956.81,632.38c-4.2-4.06-10.34-12.63-13.49-17.77" transform="translate(-97.47 -235.99)"/><path class="cls-22" d="M751.32,533.39c-5.32,4.31-10.84,9.43-17.93,12.11-10.6,2.56-30,23.83-30,28.41,0,4.34,3.87,5.8,6.28,6,2.08.13,6.51-4.68,7.63-6-1.93,4.4-3,10.36-.91,12.23s5.22,2.52,7.31.1c3.46-4,2.61-8.54,2.93-11.2,1.7-3.25,6.33-10.48,8.29-11.36,1.37.07,3.43.55,3.82,2.74s-4.7,7.08-5.27,9.12c0,2.59,2.82,5.88,5.27,5.23,2.78-.74,11.38-9.09,13.28-11.37,2.56-3.07,3.72-9.77,5.09-12s6.69-7,7.68-8S756.63,529.09,751.32,533.39Z" transform="translate(-97.47 -235.99)"/><path class="cls-17" d="M737.54,564.4c-6.3-5.23-16.13,5.48-20.6,9.8" transform="translate(-97.47 -235.99)"/><path class="cls-25" d="M833.91,362c-20.6,19.69-30.69,69-36.17,100.74-18.07,17.78-54.46,57.15-54.43,66.6s17.79,25.23,22.31,25.12,46.6-46.16,53.14-51.54S838.82,357.28,833.91,362Z" transform="translate(-97.47 -235.99)"/><path d="M826.29,281c-2.77-2.49-7.47-3.45-7.47-17.15,0-14.59,17.4-27.85,39.56-27.85,34.8,0,44.91,30.52,46.11,41.31s-.69,36.32,1.73,46.69c4.86,21.22,25.27,37.6,25.27,73.06,0,10.78-46.76,1.44-55.13.19s-18.14-56.76-18.14-56.76S829.06,283.48,826.29,281Z" transform="translate(-97.47 -235.99)"/><path class="cls-22" d="M879.44,313.62c-1.67,6.74-1.91,35.57-.67,45.19-5.67,4.07-26.77,3.6-31.17-.81,1.33-11.88,1.33-22.45,0-27.59S881.11,306.88,879.44,313.62Z" transform="translate(-97.47 -235.99)"/><path class="cls-22" d="M817.22,292.47c0-23.08,16.7-41.79,37.31-41.79s37.31,18.71,37.31,41.79-16.7,41.78-37.31,41.78S817.22,315.54,817.22,292.47Z" transform="translate(-97.47 -235.99)"/><path class="cls-26" d="M861.84,332.05c-.55-7.14-6.42-22.65-9.48-24.5s-27.08-4.69-35.14-16.69c-4.1,3.39-7.46,9.69-7.13,11,.68,2.71,7.11,7.3,7.11,7.3s1.45,17.38,14,25.13C840.27,339.91,858.22,335.32,861.84,332.05Z" transform="translate(-97.47 -235.99)"/><path class="cls-27" d="M851.57,309.87c4.19-7,15.41-16.16,21.38-18.72" transform="translate(-97.47 -235.99)"/><path class="cls-27" d="M857.08,320.3s23.75,3.63,27.6-6.68" transform="translate(-97.47 -235.99)"/><path d="M834.07,253.31c4.89,4.42,7,15.46,11.52,21,7.25,9,21.19,10.53,25.48,22.4S897.81,299,897.81,299l-2.88-28.22L878.3,253.38,852.44,246S829.22,248.88,834.07,253.31Z" transform="translate(-97.47 -235.99)"/><path class="cls-22" d="M864.66,302.86a14.26,14.26,0,1,1,14.26,14.26h0A14.27,14.27,0,0,1,864.66,302.86Z" transform="translate(-97.47 -235.99)"/><path class="cls-28" d="M833.4,289.57c0-2.89,1.27-5.23,2.83-5.23s2.84,2.34,2.84,5.23-1.27,5.23-2.84,5.23S833.4,292.46,833.4,289.57Z" transform="translate(-97.47 -235.99)"/><path class="cls-25" d="M863.55,343.18c61.23,0,103.89,116.1,108.33,133.71s1,81.82-.59,86.7c-6.07,1.19-28-2.83-32.56-5.57-4-6.68-5.47-57.31-7.1-61.9a26.13,26.13,0,0,0-5.92-10.36c1.78,13.62-.15,47.06-1.33,51.94s-96.22,4.65-103.43,1.63c-4.52-1.89-7.71-3.86-8.35-8.42-1-7.53,2.06-12.51,1.23-18.8s-4.36-7.26-5.43-17.5c-1.11-10.72,6.12-25,3.75-35.58C799.63,403.06,829.65,343.18,863.55,343.18Z" transform="translate(-97.47 -235.99)"/><path class="cls-25" d="M850.38,342.8h26.3c1.55,0,2.81,1.78,2.81,4v10.86c0,2.19-1.26,4-2.81,4h-26.3c-1.56,0-2.82-1.78-2.82-4V346.77C847.56,344.58,848.82,342.8,850.38,342.8Z" transform="translate(-97.47 -235.99)"/><path class="cls-29" d="M747.79,876.76l98.6-325.9" transform="translate(-97.47 -235.99)"/><path class="cls-29" d="M789.84,874.84l-47-23.28" transform="translate(-97.47 -235.99)"/><path class="cls-29" d="M842.11,700.56c-4.77,2.75-14.91,1.29-19.85-2" transform="translate(-97.47 -235.99)"/><path class="cls-29" d="M829,672.46l20.87,19.67" transform="translate(-97.47 -235.99)"/><path class="cls-29" d="M858.38,704.16c4.67-10.32,8.22-17.32,10-19.29,20.29-22,51.86-94.83,56.18-134.69" transform="translate(-97.47 -235.99)"/><path class="cls-29" d="M1026.55,836.57S892.05,708.17,885.8,703.14c-.4-9-1-26.53-7.23-31.91" transform="translate(-97.47 -235.99)"/><path class="cls-29" d="M931.12,677.25c-4.31,3-11.68,13.48-12.16,19.56" transform="translate(-97.47 -235.99)"/><path class="cls-29" d="M926.22,673.19c-2.41.68-9.37,4.64-11.15,7.85" transform="translate(-97.47 -235.99)"/><path class="cls-29" d="M926.43,667.44l-8.73-.65-14.48-5.47" transform="translate(-97.47 -235.99)"/><path class="cls-29" d="M926.13,667.42l-8-.6" transform="translate(-97.47 -235.99)"/><path class="cls-29" d="M1041.1,793.59l-46.88,43.58" transform="translate(-97.47 -235.99)"/><path class="cls-29" d="M814,560.8s34.81,6.3,56.33,3.36" transform="translate(-97.47 -235.99)"/><path class="cls-10" d="M818.08,541c-3-1.59-5-3.56-5.48-7.09-1-7.52,2.06-12.51,1.23-18.79s-4.36-7.26-5.43-17.5c-1.11-10.72,6.12-25,3.75-35.58a127.27,127.27,0,0,1,1.78-61.11" transform="translate(-97.47 -235.99)"/><path class="cls-10" d="M776,546.07c-3.66-2.09-22.42-19.18-26.91-28.36" transform="translate(-97.47 -235.99)"/><path class="cls-10" d="M771.07,542.22l-9.71,10.41" transform="translate(-97.47 -235.99)"/><path class="cls-10" d="M764.83,537.41l-9.7,10.42" transform="translate(-97.47 -235.99)"/><path class="cls-10" d="M758.77,531.81l-9.17,9.84" transform="translate(-97.47 -235.99)"/><path class="cls-10" d="M753.92,525.46,745,535.05" transform="translate(-97.47 -235.99)"/><path class="cls-10" d="M972.86,550.79l-37-4" transform="translate(-97.47 -235.99)"/><path class="cls-10" d="M966.75,550.13l-1,16.57" transform="translate(-97.47 -235.99)"/><path class="cls-10" d="M957.5,549.12l-1.42,16.42" transform="translate(-97.47 -235.99)"/><path class="cls-10" d="M948.4,548.13l-1.07,15.68" transform="translate(-97.47 -235.99)"/><path class="cls-10" d="M974.86,507.93a23.75,23.75,0,0,1-9-45.72" transform="translate(-97.47 -235.99)"/><path class="cls-10" d="M925.72,488.76c-3.28-5.38-41.46-65.62-43.44-68" transform="translate(-97.47 -235.99)"/><path class="cls-10" d="M873.62,421.05l8.7-.52" transform="translate(-97.47 -235.99)"/><path class="cls-10" d="M874.89,430.71l7.33-10.17" transform="translate(-97.47 -235.99)"/><path class="cls-10" d="M881.05,436l1.13-15.3" transform="translate(-97.47 -235.99)"/><path class="cls-10" d="M831,515l26.85-13.11" transform="translate(-97.47 -235.99)"/><path class="cls-10" d="M857.4,498.35,822,505.46" transform="translate(-97.47 -235.99)"/><path class="cls-10" d="M826.4,500.08,856,480.58" transform="translate(-97.47 -235.99)"/><path class="cls-10" d="M864.11,361.6H850.38c-1.56,0-2.82-1.78-2.82-4V346.77c0-2.19,1.26-4,2.82-4h26.3a2.55,2.55,0,0,1,2.13,1.38" transform="translate(-97.47 -235.99)"/><path class="cls-10" d="M854.48,342.8l.18,18.8" transform="translate(-97.47 -235.99)"/><path class="cls-10" d="M862.22,343.06l.09,9.14.09,9.66" transform="translate(-97.47 -235.99)"/><path class="cls-10" d="M870.88,343.06l.09,9.14.09,9.66" transform="translate(-97.47 -235.99)"/><path class="cls-27" d="M753.27,940.25l-85.85-38.49" transform="translate(-97.47 -235.99)"/><path class="cls-27" d="M1093,862.37l-46.06,49.5-37,4.89" transform="translate(-97.47 -235.99)"/><path class="cls-20" d="M644.4,322.86c-6.35-2.68-5.55-17.74,1.2-23.51s23.7-10.76,30.37-28.74c2.42-4.89,9.65,2.23,11.54,14.38C688.56,313.9,658.33,328.74,644.4,322.86Z" transform="translate(-97.47 -235.99)"/><path class="cls-21" d="M674.6,288.06c-1,6.38-14.38,35.14-41.38,42.46" transform="translate(-97.47 -235.99)"/><path class="cls-19" d="M817.22,290.86c-4.1,3.39-7.46,9.69-7.13,11,.68,2.71,7.11,7.3,7.11,7.3s1.45,17.38,14,25.13c4.41,2.72,10.91,3,16.85,2.25" transform="translate(-97.47 -235.99)"/><path class="cls-21" d="M1099.79,859.21c5.15-24.47,3.3-103.82-10.79-169.66" transform="translate(-97.47 -235.99)"/></g></g></svg>