<?xml version="1.0" encoding="utf-8"?>
<!-- Generator: Adobe Illustrator 22.1.0, SVG Export Plug-In . SVG Version: 6.00 Build 0)  -->
<svg version="1.1" id="katman_1" xmlns="http://www.w3.org/2000/svg" xmlns:xlink="http://www.w3.org/1999/xlink" x="0px" y="0px"
	 viewBox="0 0 1200 1200" style="enable-background:new 0 0 1200 1200;" xml:space="preserve">
<style type="text/css">
	.st0{clip-path:url(#SVGID_2_);fill:none;stroke:#AADAF1;stroke-width:2;stroke-linecap:round;stroke-linejoin:round;}
	.st1{clip-path:url(#SVGID_2_);fill-rule:evenodd;clip-rule:evenodd;fill:#FFFFFF;}
	.st2{clip-path:url(#SVGID_2_);fill-rule:evenodd;clip-rule:evenodd;fill:#DEDEDE;}
	.st3{clip-path:url(#SVGID_2_);fill-rule:evenodd;clip-rule:evenodd;fill:#F77F89;}
	.st4{clip-path:url(#SVGID_2_);fill-rule:evenodd;clip-rule:evenodd;fill:#6367FD;}
	.st5{clip-path:url(#SVGID_2_);fill:none;stroke:#4C4FD9;stroke-width:2;stroke-linecap:round;stroke-linejoin:round;}
	.st6{clip-path:url(#SVGID_2_);fill-rule:evenodd;clip-rule:evenodd;fill:#F7D167;}
	.st7{clip-path:url(#SVGID_2_);fill:none;stroke:#FF3274;stroke-width:2;stroke-linecap:round;stroke-linejoin:round;}
	.st8{clip-path:url(#SVGID_2_);fill-rule:evenodd;clip-rule:evenodd;fill:#BF9111;}
	.st9{clip-path:url(#SVGID_2_);fill-rule:evenodd;clip-rule:evenodd;fill:#3B4161;}
	.st10{clip-path:url(#SVGID_2_);fill:none;stroke:#6367FD;stroke-width:6.77;stroke-linecap:round;stroke-linejoin:round;}
	.st11{clip-path:url(#SVGID_2_);fill:none;stroke:#FFFFFF;stroke-width:3.05;stroke-linecap:round;stroke-linejoin:round;}
	.st12{clip-path:url(#SVGID_2_);fill-rule:evenodd;clip-rule:evenodd;fill:#CB5D66;}
	.st13{clip-path:url(#SVGID_2_);fill:none;stroke:#737999;stroke-width:2;stroke-linecap:round;stroke-linejoin:round;}
	.st14{clip-path:url(#SVGID_2_);fill:none;stroke:#CB5D66;stroke-width:2;stroke-linecap:round;stroke-linejoin:round;}
	.st15{clip-path:url(#SVGID_2_);fill-rule:evenodd;clip-rule:evenodd;fill:#F2E283;}
	.st16{clip-path:url(#SVGID_2_);fill:none;stroke:#C9C9C9;stroke-width:2;stroke-linecap:round;stroke-linejoin:round;}
	.st17{fill:#AADAF1;}
	.st18{fill:none;stroke:#72A5BD;stroke-width:2;stroke-linecap:round;stroke-linejoin:round;}
	.st19{fill:#F77F89;}
	.st20{fill:#6367FD;}
	.st21{fill:#C4C4C4;}
	.st22{fill:none;stroke:#CB5D66;stroke-width:2;stroke-linecap:round;stroke-linejoin:round;}
	.st23{fill:#F7D167;}
	.st24{fill:#FFFFFF;}
	.st25{fill:none;stroke:#FFFFFF;stroke-width:2;stroke-linecap:round;stroke-linejoin:round;}
	.st26{fill:#CB5D66;}
	.st27{fill:none;stroke:#8D8D8D;stroke-width:2;stroke-linecap:round;stroke-linejoin:round;}
	.st28{fill:none;stroke:#FF3274;stroke-width:2;stroke-linecap:round;stroke-linejoin:round;}
	.st29{fill:none;stroke:#C9C9C9;stroke-width:2;stroke-linecap:round;stroke-linejoin:round;}
</style>
<g>
	<defs>
		<rect id="SVGID_1_" x="-209.6" y="-10.9" width="1200" height="1200"/>
	</defs>
	<clipPath id="SVGID_2_">
		<use xlink:href="#SVGID_1_"  style="overflow:visible;"/>
	</clipPath>
	<path class="st0" d="M467.7,439h-56.8c-1.1,0-2,0.9-2,2v28c0,1.1,0.9,2,2,2h56.8c1.1,0,2-0.9,2-2v-28
		C469.7,439.9,468.8,439,467.7,439z"/>
	<path class="st0" d="M437.2,406.9h-56.8c-1.1,0-2,0.9-2,2v28c0,1.1,0.9,2,2,2h56.8c1.1,0,2-0.9,2-2v-28
		C439.2,407.8,438.3,406.9,437.2,406.9z"/>
	<path class="st0" d="M406.8,439h-56.8c-1.1,0-2,0.9-2,2v28c0,1.1,0.9,2,2,2h56.8c1.1,0,2-0.9,2-2v-28
		C408.8,439.9,407.9,439,406.8,439z"/>
	<path class="st0" d="M497.1,471h-56.8c-1.1,0-2,0.9-2,2v28c0,1.1,0.9,2,2,2h56.8c1.1,0,2-0.9,2-2v-28
		C499.2,471.9,498.3,471,497.1,471z"/>
	<path class="st1" d="M402.8,815h192.6c2.6,0,4.8,2.1,4.8,4.8s-2.1,4.8-4.8,4.8H402.8c-2.6,0-4.8-2.1-4.8-4.8S400.2,815,402.8,815"
		/>
	<path class="st1" d="M102.3,843.9h192.6c2.6,0,4.8,2.1,4.8,4.8s-2.1,4.8-4.8,4.8H102.3c-2.6,0-4.8-2.1-4.8-4.8
		S99.6,843.9,102.3,843.9"/>
	<path class="st2" d="M522,818.8c-33.8,0-62.9,20.5-75.5,49.7c-5.1-4-11.4-6.5-18.4-6.5c-6.9,0-13.2,2.4-18.2,6.3
		c-7.6-18-25.5-30.7-46.3-30.7c-18.7,0-34.7,10.3-43.4,25.3c-5.8-3.5-12.5-5.7-19.8-5.7c-16.5,0-30.4,10.5-35.9,25.1
		c0.9-0.1,1.7-0.3,2.6-0.3h380.7c-3.7-13.1-15.6-22.7-29.8-22.7c-8.1,0-15.4,3.2-20.9,8.3C584.3,838.9,555.5,818.8,522,818.8"/>
	<path class="st2" d="M243.8,872.5h435.6c2.6,0,4.8,2.1,4.8,4.8s-2.1,4.8-4.8,4.8H243.8c-2.6,0-4.8-2.1-4.8-4.8
		S241.2,872.5,243.8,872.5"/>
	<polygon class="st3" points="173.1,817.6 160.4,835.3 186.6,868 198.6,847.1 	"/>
	<path class="st4" d="M159.3,827.3l-30,34.7l47.1,55c0,0,31.3-0.3,41.2-0.3c-0.2-12-8.9-36.9-33.2-35.9c4.9-8.6,8.4-15.7,8.4-15.7
		L159.3,827.3z"/>
	<path class="st5" d="M184.4,880.7c-13.6-4.2-19.7,1.3-29.3,11.4c-6.7,7.1-20.5,6.5-29,2.4"/>
	<path class="st5" d="M153.3,924.8c4,1.9,11.2,4,13.8,4.7c12.4-11,19.8-37.1,17.4-48.8"/>
	<path class="st5" d="M147.2,840.9c4.9,3.7,8,9.6,8,16.2c0,8.9-5.7,16.5-13.7,19.2"/>
	<polyline class="st5" points="134.5,855.9 180.9,906.5 215.3,904.5 	"/>
	<polygon class="st6" points="247.9,670.9 168.6,816.3 199,851.8 342.3,703.9 310.9,659.5 	"/>
	<line class="st7" x1="215.5" y1="834.8" x2="180.1" y2="795.2"/>
	<polygon class="st8" points="310.8,659.5 247.9,670.9 215.9,729.6 270.8,728.3 288.8,759.2 342.3,703.9 	"/>
	<path class="st7" d="M182,832c32.5-38.1,132-154.1,132-154.1"/>
	<polygon class="st3" points="398.1,865.3 407.6,885.3 450.6,877.5 443.4,853.4 	"/>
	<path class="st4" d="M401.3,885.4l14.7,42c0,0,84.9-17,91.3-18.7c-12-28.2-36.6-23.5-47.4-20.8c-4.5-8.5-7.2-15.8-7.2-15.8
		L401.3,885.4z"/>
	<path class="st5" d="M459.1,878.3c1.7-5.7,5.8-9.4,9-8.4c3.2,1,4.5,6.4,2.7,12c-1.7,5.7-5.8,9.4-9,8.4
		C458.6,889.3,457.4,883.9,459.1,878.3z"/>
	<path class="st5" d="M473.3,877.5c4.5-4.6,10.1-6.1,12.5-3.2c2.4,2.8,0.7,8.9-3.8,13.5c-4.5,4.6-10.1,6.1-12.5,3.2
		C467.1,888.2,468.8,882.2,473.3,877.5z"/>
	<path class="st3" d="M434.2,547.8c5.3,4.3,10.8,9.4,17.9,12.1c10.6,2.6,30,23.8,30,28.4c0,4.3-3.9,5.8-6.3,6
		c-2.1,0.1-6.5-4.7-7.6-6c1.9,4.4,3.1,10.4,0.9,12.2c-2.1,1.9-5.2,2.5-7.3,0.1c-3.5-4-2.6-8.5-2.9-11.2c-1.7-3.3-6.3-10.5-8.3-11.4
		c-1.4,0.1-3.4,0.5-3.8,2.7c-0.4,2.2,4.7,7.1,5.3,9.1c0,2.6-2.8,5.9-5.3,5.2c-2.8-0.7-11.4-9.1-13.3-11.4c-2.6-3.1-3.7-9.8-5.1-12
		c-1.4-2.3-6.7-7-7.7-8C419.7,562.7,428.9,543.5,434.2,547.8"/>
	<path class="st9" d="M381.1,443c19.1,16.2,47.7,80.1,66.1,95.9c-1.9,9.9-32.4,46.6-53.9,37.9C366.3,565.7,366.7,430.7,381.1,443"/>
	<polygon class="st6" points="395.9,534.1 452.6,855.8 393.2,869.8 315.3,665.2 334.6,523.1 	"/>
	<line class="st7" x1="345.9" y1="745.6" x2="318" y2="672.4"/>
	<line class="st7" x1="419" y1="863.7" x2="327.5" y2="575.8"/>
	<path class="st7" d="M401,562.6c-8,3.4-49,10.9-64.8,9.3"/>
	<path class="st4" d="M229,485.8l107.5,11.4c6.4,0.7,11,6.7,10.3,13.5l-17.5,164.5c-0.7,6.8-6.5,11.7-12.9,11L209,674.8
		c-6.4-0.7-11-6.7-10.3-13.5l17.5-164.5C216.8,490.1,222.6,485.1,229,485.8"/>
	<path class="st5" d="M232.5,586c0-22.6,18.3-41,41-41c22.6,0,41,18.3,41,41c0,22.6-18.3,41-41,41C250.9,627,232.5,608.7,232.5,586z
		"/>
	<path class="st3" d="M270.9,302.1c0-10.2,5.8-18.5,12.9-18.5c7.1,0,12.9,8.3,12.9,18.5c0,10.2-5.8,18.5-12.9,18.5
		C276.7,320.6,270.9,312.3,270.9,302.1"/>
	<path class="st3" d="M278.1,311.8c0-22.7,18.4-41.1,41.1-41.1s41.1,18.4,41.1,41.1c0,22.7-18.4,41.1-41.1,41.1
		S278.1,334.5,278.1,311.8"/>
	<path class="st3" d="M264.3,573.9c-1.9,6.4-8.1,19.6-2.2,43.3c-11.2,17.2-6,29.4,19.6,32.4c4.3-5.2,8.6-8.7,13.4-16.3
		c1.6-6.8,1.4-17.3,1.6-20.1c0.3-5.7-8.1-28.5-6-38.7S266.2,567.5,264.3,573.9"/>
	<path class="st9" d="M315.2,366.6c-59.1,0-81.6,124.1-75.1,203.6c12.2,7.7,61.1,10.7,75.1,7.1c3-13.9,4-72.3,4.7-81.8
		c32.6,3.2,27,8.2,23.1,51.9c17.1,0.6,39.9-4,57.1-11.2C402.3,506.3,384.7,366.6,315.2,366.6"/>
	<path class="st10" d="M232.5,493.4l7.8-74.7c2.5-24.3,24.3-42,48.6-39.4l8.4,0.9c24.3,2.5,42,24.3,39.4,48.6l-8,76.7"/>
	<path class="st3" d="M291,335.8c3.1,13.2,3.9,31.9,3.3,39.2c7.8,4.6,28.1,7.8,37.9-5.3c-4.6-11.2-5.7-16.6-5.3-23
		C327.4,340.3,288,322.6,291,335.8"/>
	<path class="st1" d="M304.1,350c-0.9-7.1,4.2-23.8,7.2-26.1c27.5,1,44.5-18.6,47.3-23.9c3.4,4.5,4.8,8.7,5.5,11.4
		c0.7,2.7,0.1,4.6-4.6,8.5C358.3,335.9,343.8,361.4,304.1,350"/>
	<path class="st11" d="M313.5,325.6c0,0-24.9-20.5-32.2-21.5"/>
	<path class="st12" d="M333.9,304.1c0-3.6,1.2-6.4,2.6-6.4c1.4,0,2.6,2.9,2.6,6.4c0,3.6-1.2,6.4-2.6,6.4
		C335,310.6,333.9,307.7,333.9,304.1"/>
	<path class="st13" d="M317.4,555.1c-9.5,1.4-61.3-0.9-78.4-7.9"/>
	<path class="st13" d="M319.9,495.5c-0.7-19.6,17.1-83.1-18.1-109.2"/>
	<line class="st13" x1="319.9" y1="495.4" x2="301.8" y2="503.1"/>
	<line class="st13" x1="302.6" y1="493.6" x2="319.9" y2="494.9"/>
	<line class="st13" x1="305.2" y1="481.4" x2="320" y2="494.7"/>
	<path class="st13" d="M400,536.2c1-13.1-1.8-47.1-11-81.3"/>
	<path class="st13" d="M433.6,523c-8,14.1-27,29.4-33.9,32.4"/>
	<path class="st7" d="M378,568c-0.8-5.1-3.9-23.8-3.9-23.8"/>
	<line class="st7" x1="449.1" y1="835.8" x2="384.2" y2="846"/>
	<path class="st7" d="M430.5,729.5c-1.1,0.1-2.3,0.2-3.5,0.2c-17.3,0-31.3-14-31.3-31.3c0-14.7,10.2-27.1,23.9-30.4"/>
	<line class="st5" x1="413.1" y1="919.4" x2="503.9" y2="902.2"/>
	<path class="st5" d="M405.9,899.7c2.3-0.9,4.8-1.4,7.4-1.4c11.2,0,20.3,9.1,20.3,20.3c0,1.8-0.2,3.6-0.7,5.2"/>
	<path class="st11" d="M304.6,348.5c-3.1-1.2-15.8-5.6-22.3-18.8"/>
	<path class="st3" d="M270.2,319.6c0-7.3,5.9-13.2,13.2-13.2c7.3,0,13.2,5.9,13.2,13.2c0,7.3-5.9,13.2-13.2,13.2
		C276.1,332.8,270.2,326.9,270.2,319.6"/>
	<path class="st14" d="M296,323.5c-1.7,5.4-6.7,9.4-12.7,9.4"/>
	<path class="st14" d="M273,311.5c1.9-2.4,4.6-4.1,7.7-4.8"/>
	<path class="st15" d="M304.5,253.3c-23.8,5.5-38.7,29.2-33.2,53.1l86.2-19.9C352.1,262.7,328.3,247.8,304.5,253.3"/>
	<path class="st15" d="M324.7,280.1l62.3-14.4c5.2-1.2,10,0.8,10.9,4.5c0.8,3.7-2.7,7.6-7.8,8.8l-62.3,14.4
		c-5.2,1.2-10-0.8-10.9-4.5C316.1,285.2,319.6,281.3,324.7,280.1"/>
	<path class="st14" d="M260.2,641.6c2.5-2.8,5.3-6,7.1-9.2"/>
	<path class="st14" d="M271.3,647.6c4.2-4.1,10.3-12.6,13.5-17.8"/>
	<path class="st14" d="M448,578.8c6.3-5.2,16.1,5.5,20.6,9.8"/>
	<path class="st14" d="M285.7,325c-0.7,0.3-1.5,0.5-2.3,0.5c-3.1,0-5.7-2.5-5.7-5.7c0-3.1,2.6-5.7,5.7-5.7c1.1,0,2.1,0.3,2.9,0.8"/>
	<path class="st7" d="M325.5,253.6c-6.7-1.7-13.9-1.9-21-0.3c-19,4.4-32.3,20.3-34.1,38.7"/>
	<path class="st16" d="M358.5,300c3.4,4.5,4.8,8.7,5.5,11.4c0.7,2.7,0.1,4.6-4.6,8.5c-0.9,12.4-9.9,30.5-32.3,32.7"/>
</g>
<g id="Layer_2">
	<g id="Layer_1-2">
		<path class="st17" d="M1133.8,640.9c-55.7-0.8-83.2,200.2-78.5,214.7c1.1,3.3,3.6,6.9,6.9,10.3h49c7.4-15.8,18-48,26.3-83.6
			l-14-7.8l17.7-8.9c3.9-18.3,6.6-36.8,8.2-55.5l-13.7-3.2l7.6-11l-8.7-2l14.8-16.1C1147.7,660.5,1143.1,646.8,1133.8,640.9z"/>
		<path class="st18" d="M1133.6,640.9l-50.7,225"/>
		<path class="st17" d="M1033,592.8c-68,25.3-20.8,248.4-7.2,272.5h71.9c0.1-0.2,0.3-0.3,0.3-0.5c8-16.3,6.1-126.4-15.6-201.5
			l-17.9,0.4l12.2-17.8C1066.2,616.7,1051.9,595.5,1033,592.8z"/>
		<path class="st18" d="M971.6,865.9h195"/>
		<path class="st18" d="M1032.9,592.9l32.9,272.5"/>
		<path class="st19" d="M1021.9,837c7,5.1,28.2,22.2,29.3,26.9s-10.4,35.6-12.9,37.9s-27.1,8.2-28.2,9.8c-1.2,1.6-0.2,6.5,0.9,8.8
			c1.2,2.4,38.8-0.3,38.8-0.3s48.8-48.2,48.2-51.8s-55.4-53-55.4-53S1014.9,831.9,1021.9,837z"/>
		<path class="st20" d="M1076.1,846.1c-1.9,12.6-8.5,31.7-29.2,35.4c-3.2,9.4-7.2,19-8.5,20.2c-2.5,2.2-27,8.2-28.2,9.8
			c-1.2,1.6-0.2,6.5,0.9,8.8c1.2,2.4,38.8-0.3,38.8-0.3s48.8-48.2,48.2-51.8C1097.8,866.7,1087.5,856.8,1076.1,846.1z"/>
		<path class="st19" d="M779.7,879.4c-2.5,6.6-29.1,69.6-31.9,70.9s-81.6-37.1-82.2-40.9c-0.6-3.8,3-11.8,5.8-11.3
			c30.1,6,66.7,8,70.7,0.5s9.1-25.2,9.1-25.2S782.2,872.9,779.7,879.4z"/>
		<path class="st20" d="M671.5,898.2c-2.9-0.6-6.5,7.5-5.8,11.3s79.4,42.2,82.2,40.9c1.3-0.6,7.4-13.9,13.8-28.5
			c-24.3,3.7-37.2-7.7-42.7-18.4C703,903.1,687.1,901.3,671.5,898.2z"/>
		<path class="st21" d="M854.1,698.1c80.3,99.6,158.4,152.7,158.4,152.7l41.6-42l-120-139.6c0,0,9.8-107.8-11-127.5
			C902.3,521.8,803.6,635.4,854.1,698.1z"/>
		<path class="st21" d="M820.3,535.1l-82.4,336.8l44.7,22c0,0,74.8-197,85.9-209c22.8-24.6,59.7-113.3,56.5-147.6
			C921.7,503,820.3,535.1,820.3,535.1z"/>
		<path class="st19" d="M963.8,558.7c1.9,6.4,8.1,19.6,2.2,43.3c11.2,17.3,6,29.4-19.6,32.5c-4.3-5.3-8.6-8.7-13.4-16.3
			c-1.6-6.8-1.4-17.3-1.6-20.1c-0.3-5.7,11.4-31.1,9.3-41.3C938.7,546.5,961.9,552.3,963.8,558.7z"/>
		<path class="st22" d="M967.9,626.4c-2.7-2.8-5.1-5.9-7.1-9.2"/>
		<path class="st22" d="M956.8,632.4c-4.2-4.1-10.3-12.6-13.5-17.8"/>
		<path class="st19" d="M751.3,533.4c-5.3,4.3-10.8,9.4-17.9,12.1c-10.6,2.6-30,23.8-30,28.4c0,4.3,3.9,5.8,6.3,6
			c2.1,0.1,6.5-4.7,7.6-6c-1.9,4.4-3,10.4-0.9,12.2c2.1,1.9,5.2,2.5,7.3,0.1c3.5-4,2.6-8.5,2.9-11.2c1.7-3.3,6.3-10.5,8.3-11.4
			c1.4,0.1,3.4,0.5,3.8,2.7c0.4,2.2-4.7,7.1-5.3,9.1c0,2.6,2.8,5.9,5.3,5.2c2.8-0.7,11.4-9.1,13.3-11.4c2.6-3.1,3.7-9.8,5.1-12
			c1.4-2.2,6.7-7,7.7-8S756.6,529.1,751.3,533.4z"/>
		<path class="st22" d="M737.5,564.4c-6.3-5.2-16.1,5.5-20.6,9.8"/>
		<path class="st23" d="M833.9,362c-20.6,19.7-30.7,69-36.2,100.7c-18.1,17.8-54.5,57.1-54.4,66.6c0,9.5,17.8,25.2,22.3,25.1
			c4.5-0.1,46.6-46.2,53.1-51.5S838.8,357.3,833.9,362z"/>
		<path d="M826.3,281c-2.8-2.5-7.5-3.5-7.5-17.1c0-14.6,17.4-27.9,39.6-27.9c34.8,0,44.9,30.5,46.1,41.3s-0.7,36.3,1.7,46.7
			c4.9,21.2,25.3,37.6,25.3,73.1c0,10.8-46.8,1.4-55.1,0.2c-8.4-1.3-18.1-56.8-18.1-56.8S829.1,283.5,826.3,281z"/>
		<path class="st19" d="M879.4,313.6c-1.7,6.7-1.9,35.6-0.7,45.2c-5.7,4.1-26.8,3.6-31.2-0.8c1.3-11.9,1.3-22.4,0-27.6
			C846.3,325.3,881.1,306.9,879.4,313.6z"/>
		<path class="st19" d="M817.2,292.5c0-23.1,16.7-41.8,37.3-41.8s37.3,18.7,37.3,41.8c0,23.1-16.7,41.8-37.3,41.8
			S817.2,315.5,817.2,292.5z"/>
		<path class="st24" d="M861.8,332.1c-0.5-7.1-6.4-22.6-9.5-24.5s-27.1-4.7-35.1-16.7c-4.1,3.4-7.5,9.7-7.1,11
			c0.7,2.7,7.1,7.3,7.1,7.3s1.5,17.4,14,25.1C840.3,339.9,858.2,335.3,861.8,332.1z"/>
		<path class="st25" d="M851.6,309.9c4.2-7,15.4-16.2,21.4-18.7"/>
		<path class="st25" d="M857.1,320.3c0,0,23.8,3.6,27.6-6.7"/>
		<path d="M834.1,253.3c4.9,4.4,7.1,15.5,11.5,21c7.3,9,21.2,10.5,25.5,22.4c4.3,11.9,26.7,2.3,26.7,2.3l-2.9-28.2l-16.6-17.4
			l-25.9-7.4C852.4,246,829.2,248.9,834.1,253.3z"/>
		<path class="st19" d="M864.7,302.9c0-7.9,6.4-14.3,14.3-14.3c7.9,0,14.3,6.4,14.3,14.3s-6.4,14.3-14.3,14.3l0,0
			C871,317.1,864.7,310.7,864.7,302.9z"/>
		<path class="st26" d="M833.4,289.6c0-2.9,1.3-5.2,2.8-5.2s2.8,2.3,2.8,5.2c0,2.9-1.3,5.2-2.8,5.2
			C834.7,294.8,833.4,292.5,833.4,289.6z"/>
		<path class="st23" d="M863.6,343.2c61.2,0,103.9,116.1,108.3,133.7c4.4,17.6,1,81.8-0.6,86.7c-6.1,1.2-28-2.8-32.6-5.6
			c-4-6.7-5.5-57.3-7.1-61.9c-1.1-3.9-3.2-7.4-5.9-10.4c1.8,13.6-0.2,47.1-1.3,51.9c-1.2,4.9-96.2,4.6-103.4,1.6
			c-4.5-1.9-7.7-3.9-8.3-8.4c-1-7.5,2.1-12.5,1.2-18.8c-0.8-6.3-4.4-7.3-5.4-17.5c-1.1-10.7,6.1-25,3.8-35.6
			C799.6,403.1,829.7,343.2,863.6,343.2z"/>
		<path class="st23" d="M850.4,342.8h26.3c1.5,0,2.8,1.8,2.8,4v10.9c0,2.2-1.3,4-2.8,4h-26.3c-1.6,0-2.8-1.8-2.8-4v-10.9
			C847.6,344.6,848.8,342.8,850.4,342.8z"/>
		<path class="st27" d="M747.8,876.8l98.6-325.9"/>
		<path class="st27" d="M789.8,874.8l-47-23.3"/>
		<path class="st27" d="M842.1,700.6c-4.8,2.8-14.9,1.3-19.9-2"/>
		<path class="st27" d="M829,672.5l20.9,19.7"/>
		<path class="st27" d="M858.4,704.2c4.7-10.3,8.2-17.3,10-19.3c20.3-22,51.9-94.8,56.2-134.7"/>
		<path class="st27" d="M1026.6,836.6c0,0-134.5-128.4-140.8-133.4c-0.4-9-1-26.5-7.2-31.9"/>
		<path class="st27" d="M931.1,677.3c-4.3,3-11.7,13.5-12.2,19.6"/>
		<path class="st27" d="M926.2,673.2c-2.4,0.7-9.4,4.6-11.2,7.9"/>
		<path class="st27" d="M926.4,667.4l-8.7-0.6l-14.5-5.5"/>
		<path class="st27" d="M926.1,667.4l-8-0.6"/>
		<path class="st27" d="M1041.1,793.6l-46.9,43.6"/>
		<path class="st27" d="M814,560.8c0,0,34.8,6.3,56.3,3.4"/>
		<path class="st28" d="M818.1,541c-3-1.6-5-3.6-5.5-7.1c-1-7.5,2.1-12.5,1.2-18.8c-0.8-6.3-4.4-7.3-5.4-17.5
			c-1.1-10.7,6.1-25,3.8-35.6c-4.4-20.2-3.8-41.2,1.8-61.1"/>
		<path class="st28" d="M776,546.1c-3.7-2.1-22.4-19.2-26.9-28.4"/>
		<path class="st28" d="M771.1,542.2l-9.7,10.4"/>
		<path class="st28" d="M764.8,537.4l-9.7,10.4"/>
		<path class="st28" d="M758.8,531.8l-9.2,9.8"/>
		<path class="st28" d="M753.9,525.5l-8.9,9.6"/>
		<path class="st28" d="M972.9,550.8l-37-4"/>
		<path class="st28" d="M966.8,550.1l-1,16.6"/>
		<path class="st28" d="M957.5,549.1l-1.4,16.4"/>
		<path class="st28" d="M948.4,548.1l-1.1,15.7"/>
		<path class="st28" d="M974.9,507.9c-13.1,0-23.7-10.7-23.7-23.8c0-9.6,5.8-18.3,14.7-21.9"/>
		<path class="st28" d="M925.7,488.8c-3.3-5.4-41.5-65.6-43.4-68"/>
		<path class="st28" d="M873.6,421.1l8.7-0.5"/>
		<path class="st28" d="M874.9,430.7l7.3-10.2"/>
		<path class="st28" d="M881.1,436l1.1-15.3"/>
		<path class="st28" d="M831,515l26.9-13.1"/>
		<path class="st28" d="M857.4,498.4l-35.4,7.1"/>
		<path class="st28" d="M826.4,500.1l29.6-19.5"/>
		<path class="st28" d="M864.1,361.6h-13.7c-1.6,0-2.8-1.8-2.8-4v-10.8c0-2.2,1.3-4,2.8-4h26.3c0.9,0.1,1.7,0.6,2.1,1.4"/>
		<path class="st28" d="M854.5,342.8l0.2,18.8"/>
		<path class="st28" d="M862.2,343.1l0.1,9.1l0.1,9.7"/>
		<path class="st28" d="M870.9,343.1l0.1,9.1l0.1,9.7"/>
		<path class="st25" d="M753.3,940.3l-85.8-38.5"/>
		<path class="st25" d="M1093,862.4l-46.1,49.5l-37,4.9"/>
		<path class="st17" d="M644.4,322.9c-6.3-2.7-5.5-17.7,1.2-23.5c6.8-5.8,23.7-10.8,30.4-28.7c2.4-4.9,9.7,2.2,11.5,14.4
			C688.6,313.9,658.3,328.7,644.4,322.9z"/>
		<path class="st18" d="M674.6,288.1c-1,6.4-14.4,35.1-41.4,42.5"/>
		<path class="st29" d="M817.2,290.9c-4.1,3.4-7.5,9.7-7.1,11c0.7,2.7,7.1,7.3,7.1,7.3s1.5,17.4,14,25.1c4.4,2.7,10.9,3,16.9,2.3"/>
		<path class="st18" d="M1099.8,859.2c5.2-24.5,3.3-103.8-10.8-169.7"/>
	</g>
</g>
</svg>
